<?xml version="1.0" encoding="utf-8"?>
<!-- Generator: Adobe Illustrator 21.0.0, SVG Export Plug-In . SVG Version: 6.00 Build 0)  -->
<svg version="1.1" id="svg2985" xmlns="http://www.w3.org/2000/svg" xmlns:xlink="http://www.w3.org/1999/xlink" x="0px" y="0px"
	 width="340px" height="58.6px" viewBox="0 0 340 58.6" style="enable-background:new 0 0 340 58.6;" xml:space="preserve">
<style type="text/css">
	.st0{fill:#FFFFFF;}
	.st1{fill:#FE0000;}
</style>
<path class="st0" d="M142.1,16.8c-3.4,0-6.7,0.9-9.6,2.5c0-8.6,0.1-16.1,0.3-19l-17.7,3.4v1.6l1.7,0.2c2.5,0.3,3.4,1.8,3.7,5.1
	c0.5,6.4,0.5,40.3,0,45.7c5,1.2,10,1.8,15.1,1.9c14.1,0,22.6-8.7,22.6-22.5C158.2,24.7,151.3,16.8,142.1,16.8z M136,55.4
	c-1,0-2-0.1-3-0.3c-0.3-3.8-0.5-19.5-0.4-33.3c1.3-0.5,2.7-0.7,4.1-0.7c5.8,0,9.1,6.8,9.1,15.2C145.7,47.2,141.7,55.4,136,55.4
	L136,55.4z M48.4,17.2l-2.7,0.7c-2.5-8-6.3-12.6-13.5-12.6H23c-0.4,5.2-0.6,13.7-0.5,22.6l6.2-0.2c4.1-0.1,5.8-3.2,6.8-7.7h2.3v18.9
	h-2.3c-1-4.6-2.7-7.6-6.9-7.8l-6.2-0.2c0.1,6.8,0.3,12.5,0.5,15.9c0.4,5,1.8,7.2,5.4,7.8l3.1,0.3v2.3H1.5v-2.3L4,54.6
	c3.5-0.5,5-2.7,5.4-7.8c0.7-8.3,0.8-25.5,0-35.1C9,6.7,7.6,4.5,4,4L1.5,3.7V1.5h46.7L48.4,17.2z M63.3,16.3c13.3,0,19.8,9,19.8,20.9
	s-7.4,21-20.7,21s-19.9-9-19.9-20.8C42.6,25.5,50,16.3,63.3,16.3z M62.7,18.9c-5.9,0-7.5,7.9-7.5,18.4s2.6,18.4,8,18.4
	s7.5-7.9,7.5-18.4S68,18.9,62.7,18.9L62.7,18.9z M161.5,37.7c0-11,6.9-21.3,20.6-21.3c11.1,0,16.4,8.2,16.5,19h-24.8
	c-0.3,9.8,4.7,17,14.2,17c4.1,0,6.4-1,9-2.9l1.1,1.4c-2.7,3.8-8.5,7.4-16.1,7.4C169.9,58.2,161.5,49.8,161.5,37.7z M173.8,32.6
	l12.4-0.3c0.1-5.5-0.8-13.4-5.3-13.4C176.5,19,173.9,26.4,173.8,32.6L173.8,32.6z M230.4,28.7l-2,0.5c-2.1-7-5.4-10-10.2-10
	c-3.2,0-5.5,2.4-5.5,5.9s2.6,5.3,10.1,8.2s9.6,5.8,9.6,11.4c0,8.4-6.4,13.5-17,13.5c-4.8,0-9.5-0.9-14-2.5l-0.3-11.6l2-0.5
	c2.9,8.1,6.7,11,11.7,11s6.6-3,6.6-6.2s-1.8-5-8.6-7.4S202,36,202,29s6-12.7,16-12.7c4.6,0,9,0.8,12,2.1L230.4,28.7z M113.4,28.4
	c-5.4-3.6-11.2-2-12.3-0.1c-0.4,7.1-0.3,14.3,0.1,21.4c0.3,3.3,1.3,4.8,3.7,5.1l3.2,0.2v2.3H83.5V55l1.7-0.2
	c2.5-0.3,3.4-1.8,3.7-5.1c0.5-7.7,0.5-15.4,0-23.1c-0.3-3.3-1.3-4.8-3.7-5.1l-1.7-0.2v-1.6l17.7-3.4l-0.2,9.2
	c4.1-9.5,12.3-10.8,16.7-8.1L113.4,28.4z"/>
<g>
	<path class="st1" d="M273.7,58.3V50h-23.4V2.2h-8.7v56L273.7,58.3L273.7,58.3z M273.6,18H265v26.3h8.6V18z M265.8,10
		c0.9,1,2.1,1.4,3.5,1.4s2.6-0.5,3.5-1.4c0.9-1,1.4-2.1,1.4-3.5s-0.5-2.6-1.4-3.5c-1-1-2.1-1.4-3.5-1.4s-2.5,0.5-3.5,1.4
		c-0.9,1-1.4,2.1-1.4,3.5C264.3,7.9,264.8,9.1,265.8,10 M302.3,25.3V18h-9.9v-6c0-1.3,0.3-2.4,0.8-3.2c0.5-0.9,1.6-1.3,3.2-1.3h5.9
		V0h-7.1c-1.6,0-3,0.2-4.4,0.7c-1.4,0.4-2.5,1.1-3.5,2s-1.8,2.1-2.4,3.5s-0.9,3-0.9,4.9v7h-4.8v7.2h4.8v33h8.5v-33H302.3z"/>
	<path class="st1" d="M336.6,40.8v-7.9c0-2.4-0.6-4.6-1.4-6.5s-1.9-3.5-3.4-4.8c-1.4-1.3-3-2.3-5-3s-3.8-1.1-6.2-1.1
		c-2.3,0-4.5,0.4-6.4,1.1c-2,0.7-3.7,1.8-5.1,3.1c-1.5,1.4-2.6,3-3.4,5s-1.2,4.1-1.2,6.6v10.6c0,2.5,0.5,4.7,1.3,6.5
		c0.9,1.8,2.1,3.4,3.7,4.6c1.6,1.2,3.4,2.1,5.4,2.7c2,0.6,4.2,0.9,6.4,0.9c2.5,0,4.9-0.4,7.4-1.1c2.5-0.7,4.8-2.2,7-4.4
		c-0.8-1-1.6-2-2.4-3c-0.8-0.9-1.6-1.9-2.5-3c-1.7,1.6-3.4,2.6-5.1,3s-3.2,0.7-4.4,0.7c-1.1,0-2.2-0.1-3.2-0.4
		c-1-0.3-1.9-0.8-2.7-1.4c-0.8-0.6-1.4-1.4-1.9-2.4s-0.7-2.2-0.7-3.6v-2h23.8V40.8z M328.5,33.8h-15.6v-0.5c0-2.7,0.8-4.6,2.3-6
		c1.6-1.3,3.4-2,5.5-2s3.9,0.6,5.5,1.9c1.5,1.3,2.3,3.3,2.3,6.1L328.5,33.8L328.5,33.8z"/>
</g>
</svg>
